# xmcd
#
# Track frame offsets:
#	150
#	16843
#	33205
#	47800
#	64091
#	78579
#	96801
#	107795
#	123829
#	138106
#
# Disc length: 2042 seconds
#
# Revision: 1
# Processed by: cddbd v1.5.2PL0 Copyright (c) Steve Scherf et al.
# Submitted via: audiograbber 1.83.01
#
DISCID=7707f80a
DTITLE=Colby Yates - Right Amount of Renegade
DYEAR=2011
DGENRE=Country
TTITLE0=Wild Ride
TTITLE1=She Beats All I Ever Dreamed
TTITLE2=Right Amount of Renegade
TTITLE3=Three Stooges On The Fourth of July
TTITLE4=Same Ol' Bull
TTITLE5=Old Days
TTITLE6=Texas Time
TTITLE7=Life Too Long
TTITLE8=The Kind of Man He Was
TTITLE9=Slow Lane
EXTD=
EXTT0=
EXTT1=
EXTT2=
EXTT3=
EXTT4=
EXTT5=
EXTT6=
EXTT7=
EXTT8=
EXTT9=
PLAYORDER=
